<?xml version="1.0" encoding="UTF-8"?>
<svg version="1.1" xmlns="http://www.w3.org/2000/svg" width="256" height="256">
<path d="M0 0 C2.95691267 2.02315078 3.82998238 3.28774538 4.66162109 6.77172852 C5.01670112 10.15933547 4.72312346 12.7004162 4.0390625 16.02734375 C3.81476563 17.14947266 3.59046875 18.27160156 3.359375 19.42773438 C2.99585937 21.16506836 2.99585937 21.16506836 2.625 22.9375 C0.27435263 34.50345998 -1.14311339 45.11213594 -1.0625 56.9375 C-1.05798828 58.19369141 -1.05347656 59.44988281 -1.04882812 60.74414062 C-1.03709681 63.82947663 -1.020681 66.91471316 -1 70 C-0.01 70 0.98 70 2 70 C2 71.32 2 72.64 2 74 C1.34 74 0.68 74 0 74 C6.04780651 92.38128995 6.04780651 92.38128995 20 105 C24.64398011 106.54799337 29.32517708 106.49594333 34 105 C34 104.01 34 103.02 34 102 C34.94875 101.79375 35.8975 101.5875 36.875 101.375 C38.421875 100.694375 38.421875 100.694375 40 100 C41.22520264 96.99152582 41.22520264 96.99152582 42 94 C42.99 93.67 43.98 93.34 45 93 C48.83509692 87.19445672 49.71564891 80.81020864 50 74 C50.99 74 51.98 74 53 74 C54.18760734 55.4137105 53.64339617 38.79335332 49.3215332 20.68041992 C48.13051476 15.51183871 47.27344785 10.30349893 48 5 C50.0625 1.9375 50.0625 1.9375 53 0 C57.75192862 -0.60479092 61.66075785 -0.02497967 66 2 C68.0625 4.3125 68.0625 4.3125 70 7 C70.763125 7.763125 71.52625 8.52625 72.3125 9.3125 C78.22009686 15.22009686 82.99730482 21.29944566 87.4375 28.375 C87.88697998 29.08954346 88.33645996 29.80408691 88.79956055 30.5402832 C92 35.74029914 92 35.74029914 92 38 C92.66 38 93.32 38 94 38 C94.99 41.96 94.99 41.96 96 46 C96.66 46 97.32 46 98 46 C98.99 49.96 98.99 49.96 100 54 C100.66 54 101.32 54 102 54 C102.33 56.64 102.66 59.28 103 62 C103.99 62 104.98 62 106 62 C106.12117187 62.81984375 106.24234375 63.6396875 106.3671875 64.484375 C106.61855469 66.10085937 106.61855469 66.10085937 106.875 67.75 C107.11863281 69.35101563 107.11863281 69.35101563 107.3671875 70.984375 C107.84266731 73.89511242 107.84266731 73.89511242 108.97705078 75.93457031 C120.06334769 98.31883567 117.70257582 133.89375579 113.97973633 157.6027832 C113.84075928 158.50085693 113.70178223 159.39893066 113.55859375 160.32421875 C113.36221313 161.5011731 113.36221313 161.5011731 113.16186523 162.7019043 C112.97836987 165.30709565 113.38733345 167.47131737 114 170 C113.01 170 112.02 170 111 170 C110.8453125 171.7325 110.8453125 171.7325 110.6875 173.5 C110.22603119 177.29875772 109.13317203 180.44332339 107.69921875 183.96875 C106.56282126 187.27001646 106.30966595 190.53174138 106 194 C105.01 194.33 104.02 194.66 103 195 C101.53159883 197.54951047 101.53159883 197.54951047 100.3125 200.5625 C99.87550781 201.57441406 99.43851563 202.58632812 98.98828125 203.62890625 C98.66214844 204.41136719 98.33601562 205.19382813 98 206 C97.34 206 96.68 206 96 206 C95.89042969 206.56589844 95.78085938 207.13179687 95.66796875 207.71484375 C95.50941406 208.44832031 95.35085937 209.18179688 95.1875 209.9375 C94.96126953 211.03384766 94.96126953 211.03384766 94.73046875 212.15234375 C94.48941406 212.76207031 94.24835938 213.37179688 94 214 C93.01 214.33 92.02 214.66 91 215 C90.67 215.99 90.34 216.98 90 218 C88.546875 219.4296875 88.546875 219.4296875 86.75 220.875 C84.45318069 222.76705197 82.36274379 224.63725621 80.25 226.75 C78 229 78 229 75 231 C74.67 231.99 74.34 232.98 74 234 C72.35008418 234.70710678 70.6792238 235.36562656 69 236 C64.82189826 238.34767906 64.82189826 238.34767906 62 242 C59.66666667 242.66666667 57.33333333 243.33333333 55 244 C54.67 244.66 54.34 245.32 54 246 C37.073213 252.78520278 18.77513537 253.1519495 1.93017578 246.13818359 C-5.70539726 242.74635939 -12.78554234 238.98007494 -19.10546875 233.4453125 C-21.00877812 231.85875666 -21.00877812 231.85875666 -23.6484375 230.9453125 C-26.83073261 229.66605101 -27.32227616 227.95279397 -29 225 C-31.76720549 221.8111981 -33.94551882 219.35149373 -38 218 C-38.6840732 216.42663164 -39.35677492 214.84738521 -39.97265625 213.24609375 C-41.74866743 209.36317957 -44.21160284 205.90183839 -46.57421875 202.35546875 C-48 200 -48 200 -48 198 C-48.66 198 -49.32 198 -50 198 C-51.70835827 193.34744981 -53.36795827 188.67970953 -55 184 C-55.33620361 183.04601318 -55.33620361 183.04601318 -55.67919922 182.07275391 C-66.92087307 149.79344651 -66.31515643 111.95775685 -56.91796875 79.265625 C-55.68759561 74.88863799 -54.79989004 70.47306931 -54 66 C-53.34 66 -52.68 66 -52 66 C-51.87625 65.47535156 -51.7525 64.95070313 -51.625 64.41015625 C-48.47409927 52.5745854 -42.70763099 41.1721531 -36.12890625 30.8828125 C-34.84467816 28.89508875 -34.84467816 28.89508875 -34 26 C-33.34 26 -32.68 26 -32 26 C-31.77570313 25.30777344 -31.55140625 24.61554687 -31.3203125 23.90234375 C-29.68876999 20.31584646 -27.42175097 17.52444934 -24.875 14.5625 C-24.38507568 13.98846436 -23.89515137 13.41442871 -23.39038086 12.82299805 C-17.09910289 5.61580365 -10.12418973 -1.08473461 0 0 Z " fill="#E7DFE0" transform="translate(102,2)"/>
<path d="M0 0 C2.95691267 2.02315078 3.82998238 3.28774538 4.66162109 6.77172852 C5.01670112 10.15933547 4.72312346 12.7004162 4.0390625 16.02734375 C3.81476563 17.14947266 3.59046875 18.27160156 3.359375 19.42773438 C2.99585937 21.16506836 2.99585937 21.16506836 2.625 22.9375 C0.27435263 34.50345998 -1.14311339 45.11213594 -1.0625 56.9375 C-1.05798828 58.19369141 -1.05347656 59.44988281 -1.04882812 60.74414062 C-1.03709681 63.82947663 -1.020681 66.91471316 -1 70 C-0.01 70 0.98 70 2 70 C2 71.32 2 72.64 2 74 C1.34 74 0.68 74 0 74 C6.04780651 92.38128995 6.04780651 92.38128995 20 105 C24.64398011 106.54799337 29.32517708 106.49594333 34 105 C34 104.01 34 103.02 34 102 C34.94875 101.79375 35.8975 101.5875 36.875 101.375 C38.421875 100.694375 38.421875 100.694375 40 100 C41.22520264 96.99152582 41.22520264 96.99152582 42 94 C42.99 93.67 43.98 93.34 45 93 C48.83509692 87.19445672 49.71564891 80.81020864 50 74 C50.99 74 51.98 74 53 74 C54.18760734 55.4137105 53.64339617 38.79335332 49.3215332 20.68041992 C48.13051476 15.51183871 47.27344785 10.30349893 48 5 C50.0625 1.9375 50.0625 1.9375 53 0 C57.75192862 -0.60479092 61.66075785 -0.02497967 66 2 C68.0625 4.3125 68.0625 4.3125 70 7 C70.763125 7.763125 71.52625 8.52625 72.3125 9.3125 C78.22009686 15.22009686 82.99730482 21.29944566 87.4375 28.375 C87.88697998 29.08954346 88.33645996 29.80408691 88.79956055 30.5402832 C92 35.74029914 92 35.74029914 92 38 C92.66 38 93.32 38 94 38 C94.99 41.96 94.99 41.96 96 46 C96.66 46 97.32 46 98 46 C98.99 49.96 98.99 49.96 100 54 C100.66 54 101.32 54 102 54 C102.33 56.64 102.66 59.28 103 62 C103.99 62 104.98 62 106 62 C106.12117187 62.81984375 106.24234375 63.6396875 106.3671875 64.484375 C106.61855469 66.10085937 106.61855469 66.10085937 106.875 67.75 C107.11863281 69.35101563 107.11863281 69.35101563 107.3671875 70.984375 C107.84266731 73.89511242 107.84266731 73.89511242 108.97705078 75.93457031 C120.06334769 98.31883567 117.70257582 133.89375579 113.97973633 157.6027832 C113.84075928 158.50085693 113.70178223 159.39893066 113.55859375 160.32421875 C113.36221313 161.5011731 113.36221313 161.5011731 113.16186523 162.7019043 C112.97836987 165.30709565 113.38733345 167.47131737 114 170 C113.01 170 112.02 170 111 170 C110.8453125 171.7325 110.8453125 171.7325 110.6875 173.5 C110.22603119 177.29875772 109.13317203 180.44332339 107.69921875 183.96875 C106.56282126 187.27001646 106.30966595 190.53174138 106 194 C105.01 194.33 104.02 194.66 103 195 C101.53159883 197.54951047 101.53159883 197.54951047 100.3125 200.5625 C99.87550781 201.57441406 99.43851563 202.58632812 98.98828125 203.62890625 C98.66214844 204.41136719 98.33601562 205.19382813 98 206 C97.34 206 96.68 206 96 206 C95.89042969 206.56589844 95.78085938 207.13179687 95.66796875 207.71484375 C95.50941406 208.44832031 95.35085937 209.18179688 95.1875 209.9375 C94.96126953 211.03384766 94.96126953 211.03384766 94.73046875 212.15234375 C94.48941406 212.76207031 94.24835938 213.37179688 94 214 C93.01 214.33 92.02 214.66 91 215 C90.67 215.99 90.34 216.98 90 218 C88.546875 219.4296875 88.546875 219.4296875 86.75 220.875 C84.45318069 222.76705197 82.36274379 224.63725621 80.25 226.75 C78 229 78 229 75 231 C74.67 231.99 74.34 232.98 74 234 C72.35008418 234.70710678 70.6792238 235.36562656 69 236 C64.82189826 238.34767906 64.82189826 238.34767906 62 242 C59.66666667 242.66666667 57.33333333 243.33333333 55 244 C54.67 244.66 54.34 245.32 54 246 C37.073213 252.78520278 18.77513537 253.1519495 1.93017578 246.13818359 C-5.70539726 242.74635939 -12.78554234 238.98007494 -19.10546875 233.4453125 C-21.00877812 231.85875666 -21.00877812 231.85875666 -23.6484375 230.9453125 C-26.83073261 229.66605101 -27.32227616 227.95279397 -29 225 C-31.76720549 221.8111981 -33.94551882 219.35149373 -38 218 C-38.6840732 216.42663164 -39.35677492 214.84738521 -39.97265625 213.24609375 C-41.74866743 209.36317957 -44.21160284 205.90183839 -46.57421875 202.35546875 C-48 200 -48 200 -48 198 C-48.66 198 -49.32 198 -50 198 C-51.70835827 193.34744981 -53.36795827 188.67970953 -55 184 C-55.33620361 183.04601318 -55.33620361 183.04601318 -55.67919922 182.07275391 C-66.92087307 149.79344651 -66.31515643 111.95775685 -56.91796875 79.265625 C-55.68759561 74.88863799 -54.79989004 70.47306931 -54 66 C-53.34 66 -52.68 66 -52 66 C-51.87625 65.47535156 -51.7525 64.95070313 -51.625 64.41015625 C-48.47409927 52.5745854 -42.70763099 41.1721531 -36.12890625 30.8828125 C-34.84467816 28.89508875 -34.84467816 28.89508875 -34 26 C-33.34 26 -32.68 26 -32 26 C-31.77570313 25.30777344 -31.55140625 24.61554687 -31.3203125 23.90234375 C-29.68876999 20.31584646 -27.42175097 17.52444934 -24.875 14.5625 C-24.38507568 13.98846436 -23.89515137 13.41442871 -23.39038086 12.82299805 C-17.09910289 5.61580365 -10.12418973 -1.08473461 0 0 Z M-21.515625 17.734375 C-31.71067125 30.64810025 -38.74979165 45.89052197 -45 61 C-45.29100586 61.68481445 -45.58201172 62.36962891 -45.88183594 63.07519531 C-62.4748678 102.37859587 -62.70860219 149.93660121 -46.92773438 189.5324707 C-36.79291579 213.41597082 -18.95906922 231.17127111 4.66015625 241.66015625 C5.76230469 242.10230469 6.86445312 242.54445312 8 243 C8.90105469 243.38414062 9.80210938 243.76828125 10.73046875 244.1640625 C15.56890398 245.40112957 20.27600514 245.32850384 25.25 245.3125 C26.23613281 245.32861328 27.22226563 245.34472656 28.23828125 245.36132812 C48.07606499 245.37439649 65.17422817 233.36642243 79.1875 220.25 C95.43615586 203.14434752 104.00328907 180.98108783 108 158 C108.20625 156.8346875 108.4125 155.669375 108.625 154.46875 C112.03092334 131.19494051 111.11401088 107.6856273 105 85 C104.62310327 83.49494045 104.24676386 81.98974119 103.87109375 80.484375 C97.16107128 54.81446563 82.94935047 20.29956698 60 5 C56.87478167 4.83300768 56.87478167 4.83300768 54 5 C53.38919555 13.39856123 55.43655167 20.94831229 57.51928711 29.01464844 C59.17182335 35.83964828 59.18608985 42.45683197 59.18530273 49.44482422 C59.18747232 51.59753707 59.2056055 53.74972252 59.22460938 55.90234375 C59.299713 73.78502099 55.68178868 91.70782339 42.94921875 105.16796875 C36.69070264 110.88431585 31.54486895 112.54794512 23.06640625 112.37109375 C15.52691676 111.45867146 10.27553556 107.05135894 5.625 101.28125 C-7.82040708 82.40596699 -9.56902759 57.5809387 -6.43359375 35.12890625 C-5.78865492 31.37829823 -4.92594924 27.69128412 -4 24 C-3.43492008 21.60477385 -2.87229745 19.20896624 -2.3125 16.8125 C-1.93544922 15.30623047 -1.93544922 15.30623047 -1.55078125 13.76953125 C-1.01616643 11.08129075 -0.82047966 8.73162029 -1 6 C-2.04075531 4.74577242 -2.04075531 4.74577242 -4.328125 4.7890625 C-11.30941436 5.34021692 -17.17794193 12.73856071 -21.515625 17.734375 Z " fill="#050505" transform="translate(102,2)"/>
<path d="M0 0 C3.81667788 3.71881435 4.51338674 7.2698664 4.75 12.4375 C4.32218806 26.65036347 -1.40694909 41.25723882 -11.3359375 51.53125 C-17.45526487 56.59848249 -24.36449277 59.25288674 -32.33203125 58.796875 C-35.84366021 58.13267898 -37.96091801 56.78146334 -40.5625 54.375 C-44.33194112 47.26505416 -43.50006701 36.93370904 -41.91015625 29.203125 C-37.76659654 16.8969305 -29.93166218 6.47433445 -18.6875 -0.125 C-12.55536974 -2.87219435 -6.04963448 -2.75948239 0 0 Z " fill="#020202" transform="translate(183.5625,175.625)"/>
<path d="M0 0 C12.35789026 4.92513731 19.14672303 13.74285968 24.5546875 25.47265625 C28.03056641 33.95567963 30.03887728 44.66008331 26.6875 53.4375 C24.09041448 57.38122245 22.63064655 59.03702649 18 60 C9.62185568 61.14099242 3.48182124 58.35732097 -3.1640625 53.37890625 C-12.79722288 44.73137811 -18.19020931 30.86220373 -19.34765625 18.1953125 C-19.91158692 7.16030642 -19.91158692 7.16030642 -16.625 3.125 C-11.48239152 -1.03806401 -6.4331671 -0.89453077 0 0 Z " fill="#020202" transform="translate(87,174)"/>
<path d="M0 0 C0.495 1.485 0.495 1.485 1 3 C0.67 3.66 0.34 4.32 0 5 C1.32 4.34 2.64 3.68 4 3 C-0.61596545 16.87244937 -19.18043125 26.88758903 -31.4765625 33.13671875 C-34.20908102 34.07152772 -35.38081177 34.16737575 -38 33 C-38.33 32.34 -38.66 31.68 -39 31 C-38.21753906 30.66226563 -37.43507812 30.32453125 -36.62890625 29.9765625 C-35.61699219 29.53054687 -34.60507813 29.08453125 -33.5625 28.625 C-32.55316406 28.18414062 -31.54382813 27.74328125 -30.50390625 27.2890625 C-27.87856453 26.24923714 -27.87856453 26.24923714 -27 24 C-25.14840662 23.19394358 -23.2675889 22.45443755 -21.375 21.75 C-11.32550052 17.64208848 -7.20281706 12.35862758 -2 3 C-1.34 2.01 -0.68 1.02 0 0 Z " fill="#EFEEEE" transform="translate(183,210)"/>
<path d="M0 0 C0.71857178 0.16226074 1.43714355 0.32452148 2.17749023 0.49169922 C4.90909402 0.9836289 7.38895532 1.12921987 10.16015625 1.1328125 C11.11857422 1.13410156 12.07699219 1.13539063 13.06445312 1.13671875 C14.54848633 1.13091797 14.54848633 1.13091797 16.0625 1.125 C17.55233398 1.13080078 17.55233398 1.13080078 19.07226562 1.13671875 C20.50795898 1.13478516 20.50795898 1.13478516 21.97265625 1.1328125 C23.27601929 1.13112061 23.27601929 1.13112061 24.60571289 1.12939453 C26.87284883 1.00687163 28.82617652 0.63404497 31 0 C31 0.99 31 1.98 31 3 C26.08513346 5.88404856 21.11288857 5.32968387 15.5625 5.3125 C14.00692383 5.33666992 14.00692383 5.33666992 12.41992188 5.36132812 C3.04259794 5.36735081 3.04259794 5.36735081 -1 2 C-0.67 1.34 -0.34 0.68 0 0 Z " fill="#F6F5F5" transform="translate(112,242)"/>
<path d="M0 0 C3.85261905 2.53709059 5.3568491 6.29548601 6.5625 10.6875 C6.2325 11.6775 5.9025 12.6675 5.5625 13.6875 C1.67252809 12.19003294 0.09301948 9.98327922 -2.1875 6.5625 C-2.80109375 5.65242187 -3.4146875 4.74234375 -4.046875 3.8046875 C-4.50578125 3.10601562 -4.9646875 2.40734375 -5.4375 1.6875 C-2.4375 -0.3125 -2.4375 -0.3125 0 0 Z " fill="#EEEDED" transform="translate(70.4375,207.3125)"/>
<path d="M0 0 C3.63 0 7.26 0 11 0 C11 0.33 11 0.66 11 1 C9.35 1.33 7.7 1.66 6 2 C8.97 3.65 11.94 5.3 15 7 C14.34 7.66 13.68 8.32 13 9 C8.63960449 8.70930697 5.45607053 7.68805486 2 5 C1.34 3.35 0.68 1.7 0 0 Z " fill="#F8F5F5" transform="translate(96,234)"/>
<path d="M0 0 C0.99 0 1.98 0 3 0 C2.69121427 3.1087919 2.51628935 4.56644261 0.07421875 6.6171875 C-1.10720703 7.23980469 -1.10720703 7.23980469 -2.3125 7.875 C-3.09238281 8.30554688 -3.87226563 8.73609375 -4.67578125 9.1796875 C-7.30818703 10.10877189 -8.4538764 10.09039289 -11 9 C-11.33 8.34 -11.66 7.68 -12 7 C-11.21753906 6.66226563 -10.43507812 6.32453125 -9.62890625 5.9765625 C-8.61699219 5.53054687 -7.60507813 5.08453125 -6.5625 4.625 C-5.55316406 4.18414062 -4.54382813 3.74328125 -3.50390625 3.2890625 C-0.87856453 2.24923714 -0.87856453 2.24923714 0 0 Z " fill="#F4F3F3" transform="translate(156,234)"/>
<path d="M0 0 C1.32 0.99 2.64 1.98 4 3 C3.37240135 5.92879371 2.41377341 8.36095629 1 11 C0.01 11 -0.98 11 -2 11 C-1.34 7.37 -0.68 3.74 0 0 Z " fill="#D9D1D2" transform="translate(187,193)"/>
<path d="M0 0 C2.93200474 2.85276137 5.64315404 5.65079784 8 9 C5.29068581 8.84518205 3.53415961 8.51827919 1.5546875 6.59765625 C0.32320358 5.10228292 -0.8429837 3.5537076 -2 2 C-1.34 1.34 -0.68 0.68 0 0 Z " fill="#D4D4D4" transform="translate(77,219)"/>
<path d="M0 0 C0.99 0 1.98 0 3 0 C2.6875 2.375 2.6875 2.375 2 5 C1.01 5.66 0.02 6.32 -1 7 C-1.99 6.67 -2.98 6.34 -4 6 C-4 5.01 -4 4.02 -4 3 C-3.01 2.67 -2.02 2.34 -1 2 C-0.67 1.34 -0.34 0.68 0 0 Z " fill="#FAF9F9" transform="translate(156,234)"/>
<path d="M0 0 C0.86625 0.3403125 0.86625 0.3403125 1.75 0.6875 C1.09 2.0075 0.43 3.3275 -0.25 4.6875 C1.07 5.3475 2.39 6.0075 3.75 6.6875 C-0.20820859 6.12204163 -2.9159053 4.87847652 -6.25 2.6875 C-2.80384615 -0.38942308 -2.80384615 -0.38942308 0 0 Z " fill="#D9CDCD" transform="translate(107.25,233.3125)"/>
<path d="M0 0 C0.99 0.33 1.98 0.66 3 1 C-0.465 3.97 -0.465 3.97 -4 7 C-4 4 -4 4 -2 1.8125 C-1.34 1.214375 -0.68 0.61625 0 0 Z " fill="#F8F7F7" transform="translate(88,12)"/>
<path d="M0 0 C0.66 0 1.32 0 2 0 C4.04169485 2.90548882 5 4.40142046 5 8 C4.01 8 3.02 8 2 8 C1.34 5.36 0.68 2.72 0 0 Z " fill="#EFEFEF" transform="translate(182,32)"/>
</svg>
